<svg id="Layer_1" data-name="Layer 1" xmlns="http://www.w3.org/2000/svg" width="64" height="64" viewBox="0 0 64 64"><defs><style>.cls-1{fill:#1d1d1b;}.cls-2{fill:#6a6a6a;}</style></defs><title>darth-vader</title><g id="darth-vader"><path class="cls-1" d="M10.35,35.62s-.75.14-1-1.48-.59-8.61-.3-8.87a9.52,9.52,0,0,1,2.07-.63s0-7.54,2.67-11.86,5.39-6.09,10.65-7.55a29.31,29.31,0,0,1,15.18.3c4.41,1.18,8.7,4.62,9.88,8.8a48.8,48.8,0,0,1,1.4,9.55,9.49,9.49,0,0,1,2.52.9c.17.33.43,9.12,0,9.38a1.6,1.6,0,0,1-.87.23s7.86,18,7.59,19-12.93,6.36-30.11,6.24S4.09,54.2,3.78,53.5,10.35,35.62,10.35,35.62Z"/><path class="cls-2" d="M13.24,27.92s-.6-7.65,1.29-11.91a19.56,19.56,0,0,1,7.76-8.23A20.63,20.63,0,0,1,28.8,6.33c0,.17.67,10.24.66,11.61a26.86,26.86,0,0,1-.57,4s-4-2.45-8.16-1.38A10.45,10.45,0,0,0,13.24,27.92Z"/><path class="cls-2" d="M30.11,22.18s.54-3.68.55-4.89-.81-10.82-.6-10.95a4,4,0,0,1,1.88,0C32,6.5,33,18,33.21,19.56A9.43,9.43,0,0,1,33.48,22,2.84,2.84,0,0,1,30.11,22.18Z"/><path class="cls-2" d="M34.8,21.44a74.91,74.91,0,0,1-1.4-9.34c-.17-3.62-.51-5.66-.06-5.83S40,6.43,43.76,9.71s4.06,5.61,3.81,5.66-2.52-1-2.64-.77-.15.8.06.92,2.69,1.1,2.82,1.26a4.07,4.07,0,0,1,.27,1,16.92,16.92,0,0,0-3-1.14c-.12.17-.23.92,0,1s3,1.3,3,1.3l.1.79s-2.82-1.18-3-1.14-.36.8-.14.92,3.16,1.26,3.24,1.42.41,1.37.41,1.37L47,21.72s.31.87.48.95,1.3.43,1.31.76A33.23,33.23,0,0,1,49,26.76c-.13,0-2.2-6.45-5.22-7.08S34.8,21.44,34.8,21.44Z"/><path class="cls-2" d="M22.44,22.28c2.21,0,7.19,2.45,9.76,1.85s6.89-2.79,9.52-2.82,4.06,2.48,6.36,7.85,7.13,17.33,7,17.33S46.94,28.6,45.38,26.26s-2.66-3-5.86-2.77-6.81,1-6.84,1.42,0,7.17.48,7.74,3.06.72,6.18.52,5-.33,5.78-.64a10.33,10.33,0,0,0,1.68-1L54.62,48a29.52,29.52,0,0,0-2.94-2.55c-.21,0-.31.8-.19.88s3.67,3.33,4,3.7a12.27,12.27,0,0,1,1.61,2.63c-.12.17-.44.55-.66.47s-5-5.71-5.39-5.83-.44.59-.44.59,5.18,5.5,5.06,5.63a9,9,0,0,1-1.15.57s-4.33-5-4.5-4.93-.69.6-.4.8a46.2,46.2,0,0,1,4.07,4.36,6.44,6.44,0,0,1-1.2.4A47.2,47.2,0,0,0,48.9,51c-.25,0-.62.39-.49.55s3.33,3.29,3.21,3.46a3.88,3.88,0,0,1-1.16.36s-2.48-2.61-2.65-2.6-.74.31-.53.6,2.39,2.19,2.26,2.28a4.52,4.52,0,0,1-1,.19c-.12,0-2-2-2.22-2s-.79.19-.66.47,1.84,1.79,1.63,1.92-5.17,1.67-15.76,1.51-14.84-1.85-14.84-1.85a46.87,46.87,0,0,0-4.22-3.69c-.38,0-.78.6-.61.72a29.16,29.16,0,0,1,2.86,2.6c-.17,0-3.27-.92-4.32-1.1a7.64,7.64,0,0,1-2.27-.61c0-.12,6-14.44,6.27-14.41S18.73,49.5,18.73,49.5a2.77,2.77,0,0,0,1.2,2.89,3.91,3.91,0,0,0,3.49-.25l15.51.08c.12,0,2.66,1.27,3.69-.67s.43-2.68.43-2.68,4-11.27,3.76-11.51A5.51,5.51,0,0,0,45.06,37s-2.75,10.32-3,10.33S40.8,47,40.38,47a3.24,3.24,0,0,0-.71,0L34.2,39.37s1.1-6-3.27-6-3.15,6-3.15,6-1-.06-2,1.51-3.39,6.29-3.39,6.29a3.68,3.68,0,0,0-1.45.2c-.66.27-1.07.48-1.07.48s-3.54-8.29-3.46-8.46.82-2.15,1.2-2.15,2.93.39,3.93.4,1.16-.11,1.2-.28.27-.8.11-.79-5.14-.54-5.52-.62-1.07,2.19-1.4,2.28-1.33.24-1.21,0,2.17-5.14,2.29-5.1,7.53,1.07,9.73.64,2.77-1.11,3.07-2.16a32.27,32.27,0,0,0,.26-6.59,19,19,0,0,0-6.2-1.31c-2.79-.1-4.67-.14-5.87,1.81S7.28,53.24,7.11,53.29A3.39,3.39,0,0,1,6.19,53s4.91-14,6.78-19.25S16.44,22.18,22.44,22.28Z"/><path class="cls-2" d="M28.76,40.3a14.55,14.55,0,0,0,2.25,0l2.29-.1s-.39,9.68,0,9.75.67.28.67-.06-.19-7.75.06-7.8.75,1.52.75,1.52-.13,6.42,0,6.46.88.27.84.06.05-4.75.05-4.75l1.43,2.26-.79.06s-.08,2,.17,2a4.82,4.82,0,0,0,.71,0c.12,0,.11,1.16.11,1.16s-7.26-.2-9.8-.14-2.75.11-2.75.11a6.7,6.7,0,0,0-.55-1.95l-.61-1.28S28.39,40.43,28.76,40.3Z"/><path class="cls-1" d="M30.57,41.13c.28-.1.79-.06.84.1s.41,8.41.17,8.62-.87.15-.88,0S30.45,41.17,30.57,41.13Z"/><path class="cls-1" d="M28.74,41.26c.21-.09.7-.18.79,0s.54,8.61.38,8.66-.87.19-.87,0S28.74,41.26,28.74,41.26Z"/><path class="cls-1" d="M27,44.8c.05-.14.87-.4.87-.23s.38,5.16.21,5.25a2.75,2.75,0,0,1-.79.06S26.91,45,27,44.8Z"/><path class="cls-1" d="M25.25,46.8c0-.17.57-.64.65-.52a13.86,13.86,0,0,1,.25,3.45,4.13,4.13,0,0,1-.79.14S25.21,47,25.25,46.8Z"/><path class="cls-1" d="M41.23,35.62c.19-.09,2.79-.15,4.58-.36A9.93,9.93,0,0,1,47.59,35c.21,0,.48.86.36,1a17.72,17.72,0,0,1-4.32.69c-1.46,0-2.29,0-2.29,0S40.86,35.79,41.23,35.62Z"/><path class="cls-1" d="M42,38.39c.34-.09,1.41,1.51,1.41,1.51s-.19.8-.4.64a10.72,10.72,0,0,1-1.5-1.63C41.43,38.69,41.8,38.44,42,38.39Z"/><path class="cls-1" d="M40.41,39.68c.29-.1,2.29,1.78,2.22,2s-.15.63-.28.59a19.25,19.25,0,0,1-2.43-2.11C39.88,39.94,40.29,39.72,40.41,39.68Z"/><path class="cls-1" d="M39.41,41.16s2.55,2,2.47,2.32a2.56,2.56,0,0,1-.36.68s-2.93-2.39-2.81-2.6S39.24,41.29,39.41,41.16Z"/><path class="cls-1" d="M14.45,48.4c.2.07,2.81,2.31,2.82,2.72s-.11.63-.23.63a26.41,26.41,0,0,1-2.93-2.39C14.05,49.2,14.24,48.32,14.45,48.4Z"/><path class="cls-1" d="M13.67,50.5s3.83,3.16,3.83,3.37-.11.67-.23.67a35.06,35.06,0,0,1-4.08-3.07C13.15,51.22,13.67,50.5,13.67,50.5Z"/><path class="cls-1" d="M16.27,17c-.17-.24.44-2.3,1.57-3.91s2.19-2.51,2.65-2.4.77.61.6.82a7.09,7.09,0,0,0-2.72,2.86c-.79,1.85-.55,3-.8,3.06A1.89,1.89,0,0,1,16.27,17Z"/><path class="cls-1" d="M44.85,13.23c.29-.05,1.51.3,1.6.54s.27.83-.11.75A10.22,10.22,0,0,1,44.91,14C44.74,13.94,44.6,13.28,44.85,13.23Z"/></g></svg>