<svg width="500" height="500" viewBox="0 0 500 500" fill="none" xmlns="http://www.w3.org/2000/svg">
<style>
@media (prefers-color-scheme: dark) {
  circle { fill: #517db9; }
  path { fill: #f5cac3; }
}
</style>
<circle cx="250" cy="250" r="250" fill="#F5CAC3"/>
<path d="M219.602 137C163.149 173.102 119 231.588 119 295.128C119 314.623 122.619 333.396 130.58 350.003C141.436 359.39 153.017 363 166.768 363C190.652 363 205.851 349.281 205.851 322.566C205.851 305.236 200.061 290.073 177.624 270.578L155.188 251.805C170.387 207.76 190.652 185.377 231.182 153.607L219.602 137ZM305.006 251.805C319.481 207.76 340.47 185.377 381 153.607L368.696 137C312.243 173.102 268.094 231.588 268.094 295.128C268.094 314.623 272.436 333.396 279.674 350.003C291.254 359.39 302.834 363 315.862 363C339.746 363 355.669 349.281 355.669 322.566C355.669 305.236 349.155 290.073 327.442 270.578L305.006 251.805Z" fill="#517DB9"/>
</svg>
